<?xml version="1.0" encoding="iso-8859-1"?>
<!-- Generator: Adobe Illustrator 19.0.0, SVG Export Plug-In . SVG Version: 6.00 Build 0)  -->
<svg version="1.1" id="Layer_1" xmlns="http://www.w3.org/2000/svg" xmlns:xlink="http://www.w3.org/1999/xlink" x="0px" y="0px"
	 viewBox="0 0 473.931 473.931" style="enable-background:new 0 0 473.931 473.931;" xml:space="preserve">
<circle style="fill:#357180;" cx="236.966" cy="236.966" r="236.966"/>
<path style="fill:#036A7B;" d="M139.942,330.659c0,17.65-14.301,31.947-31.947,31.947l0,0c-17.642,0-17.586-14.297-17.586-31.947
	v-0.673c0-17.642-0.056-31.943,17.586-31.943l0,0c17.646,0,31.947,14.301,31.947,31.943L139.942,330.659L139.942,330.659z"/>
<rect x="114.457" y="306.637" style="fill:#CDCDCE;" width="251.11" height="46.308"/>
<g>
	<rect x="114.457" y="306.226" style="fill:#D7D7D7;" width="251.11" height="6.26"/>
	<rect x="114.457" y="319.958" style="fill:#D7D7D7;" width="251.11" height="6.256"/>
	<rect x="114.457" y="333.129" style="fill:#D7D7D7;" width="251.11" height="6.26"/>
	<rect x="114.457" y="346.412" style="fill:#D7D7D7;" width="251.11" height="6.26"/>
</g>
<g>
	<path style="fill:#028CA3;" d="M378.835,303.06c0,2.724-1.609,4.932-3.585,4.932H110.513c-1.983,0-3.592-2.211-3.592-4.932l0,0
		c0-2.728,1.609-4.932,3.592-4.932H375.25C377.226,298.128,378.835,300.336,378.835,303.06L378.835,303.06z"/>
	<path style="fill:#028CA3;" d="M378.835,357.626c0,2.728-1.609,4.932-3.585,4.932H110.513c-1.983,0-3.592-2.208-3.592-4.932l0,0
		c0-2.724,1.609-4.932,3.592-4.932H375.25C377.226,352.691,378.835,354.902,378.835,357.626L378.835,357.626z"/>
	<rect x="106.921" y="302.693" style="fill:#028CA3;" width="10.769" height="55.277"/>
</g>
<path style="fill:#1D8D45;" d="M323.067,268.486c0,16.303,13.216,29.508,29.511,29.508l0,0c16.295,0,16.247-13.201,16.247-29.508
	v-0.625c0-16.292,0.052-29.508-16.247-29.508l0,0c-16.292,0-29.511,13.212-29.511,29.508V268.486z"/>
<rect x="117.764" y="246.301" style="fill:#CDCDCE;" width="228.846" height="42.772"/>
<g>
	<rect x="117.764" y="245.912" style="fill:#D7D7D7;" width="228.846" height="5.781"/>
	<rect x="117.764" y="258.593" style="fill:#D7D7D7;" width="228.846" height="5.781"/>
	<rect x="117.764" y="270.791" style="fill:#D7D7D7;" width="228.846" height="5.781"/>
	<rect x="117.764" y="283.064" style="fill:#D7D7D7;" width="228.846" height="5.781"/>
</g>
<g>
	<path style="fill:#21AC4B;" d="M105.495,242.99c0,2.518,1.482,4.557,3.315,4.557h241.445c1.826,0,3.315-2.039,3.315-4.557l0,0
		c0-2.511-1.485-4.55-3.315-4.55H108.81C106.981,238.44,105.495,240.479,105.495,242.99L105.495,242.99z"/>
	<path style="fill:#21AC4B;" d="M105.495,293.391c0,2.518,1.482,4.557,3.315,4.557h241.445c1.826,0,3.315-2.039,3.315-4.557l0,0
		c0-2.514-1.485-4.557-3.315-4.557H108.81C106.981,288.838,105.495,290.881,105.495,293.391L105.495,293.391z"/>
	<rect x="343.643" y="242.649" style="fill:#21AC4B;" width="9.942" height="51.06"/>
</g>
<path style="fill:#8C402B;" d="M310.48,213.561c0,13.732,11.117,24.845,24.845,24.845l0,0c13.721,0,13.68-11.113,13.68-24.845
	v-0.528c0-13.721,0.041-24.853-13.68-24.853l0,0c-13.729,0-24.845,11.132-24.845,24.853V213.561z"/>
<rect x="133.701" y="194.871" style="fill:#CDCDCE;" width="196.592" height="36.018"/>
<g>
	<rect x="133.701" y="194.534" style="fill:#D7D7D7;" width="196.592" height="4.864"/>
	<rect x="133.701" y="205.224" style="fill:#D7D7D7;" width="196.592" height="4.868"/>
	<rect x="133.701" y="215.488" style="fill:#D7D7D7;" width="196.592" height="4.864"/>
	<rect x="133.701" y="225.815" style="fill:#D7D7D7;" width="196.592" height="4.864"/>
</g>
<g>
	<path style="fill:#BB5538;" d="M123.373,192.087c0,2.118,1.253,3.839,2.788,3.839h207.211c1.542,0,2.788-1.721,2.788-3.839l0,0
		c0-2.114-1.246-3.828-2.788-3.828H126.161C124.623,188.259,123.373,189.973,123.373,192.087L123.373,192.087z"/>
	<path style="fill:#BB5538;" d="M123.373,234.534c0,2.114,1.253,3.828,2.788,3.828h207.211c1.542,0,2.788-1.714,2.788-3.828l0,0
		c0-2.118-1.246-3.839-2.788-3.839H126.161C124.623,230.695,123.373,232.416,123.373,234.534L123.373,234.534z"/>
	<rect x="327.778" y="191.803" style="fill:#BB5538;" width="8.37" height="42.989"/>
</g>
<path style="fill:#036A7B;" d="M148.638,163.212c0,13.732-11.117,24.845-24.845,24.845l0,0c-13.721,0-13.676-11.113-13.676-24.845
	v-0.528c0-13.721-0.045-24.849,13.676-24.849l0,0c13.729,0,24.845,11.128,24.845,24.849V163.212z"/>
<rect x="128.825" y="144.533" style="fill:#CDCDCE;" width="221.063" height="36.018"/>
<g>
	<rect x="128.825" y="144.204" style="fill:#D7D7D7;" width="221.063" height="4.868"/>
	<rect x="128.825" y="154.871" style="fill:#D7D7D7;" width="221.063" height="4.864"/>
	<rect x="128.825" y="165.161" style="fill:#D7D7D7;" width="221.063" height="4.872"/>
	<rect x="128.825" y="175.474" style="fill:#D7D7D7;" width="221.063" height="4.868"/>
</g>
<g>
	<path style="fill:#028CA3;" d="M360.212,141.742c0,2.122-1.253,3.839-2.788,3.839H125.749c-1.542,0-2.788-1.717-2.788-3.839l0,0
		c0-2.114,1.246-3.832,2.788-3.832h231.675C358.958,137.91,360.212,139.628,360.212,141.742L360.212,141.742z"/>
	<path style="fill:#028CA3;" d="M360.212,184.188c0,2.114-1.253,3.832-2.788,3.832H125.749c-1.542,0-2.788-1.717-2.788-3.832l0,0
		c0-2.118,1.246-3.839,2.788-3.839h231.675C358.958,180.349,360.212,182.07,360.212,184.188L360.212,184.188z"/>
	<rect x="122.962" y="141.461" style="fill:#028CA3;" width="8.37" height="42.989"/>
</g>
<path style="fill:#8C402B;" d="M172.798,118.644c0,10.589-8.572,19.162-19.162,19.162l0,0c-10.582,0-10.556-8.572-10.556-19.162
	v-0.408c0-10.585-0.026-19.165,10.556-19.165l0,0c10.589,0,19.162,8.58,19.162,19.165V118.644z"/>
<rect x="157.528" y="104.234" style="fill:#CDCDCE;" width="154.759" height="27.779"/>
<g>
	<rect x="157.528" y="103.976" style="fill:#D7D7D7;" width="154.759" height="3.742"/>
	<rect x="157.528" y="112.215" style="fill:#D7D7D7;" width="154.759" height="3.742"/>
	<rect x="157.528" y="120.148" style="fill:#D7D7D7;" width="154.759" height="3.742"/>
	<rect x="157.528" y="128.08" style="fill:#D7D7D7;" width="154.759" height="3.742"/>
</g>
<g>
	<path style="fill:#BB5538;" d="M320.239,102.086c0,1.635-0.969,2.96-2.151,2.96H155.145c-1.19,0-2.152-1.325-2.152-2.96l0,0
		c0-1.635,0.962-2.96,2.152-2.96h162.942C319.269,99.127,320.239,100.451,320.239,102.086L320.239,102.086z"/>
	<path style="fill:#BB5538;" d="M320.239,134.823c0,1.631-0.969,2.952-2.151,2.952H155.145c-1.19,0-2.152-1.325-2.152-2.952l0,0
		c0-1.639,0.962-2.963,2.152-2.963h162.942C319.269,131.86,320.239,133.184,320.239,134.823L320.239,134.823z"/>
	<rect x="152.993" y="101.851" style="fill:#BB5538;" width="6.458" height="33.159"/>
</g>
<g>
</g>
<g>
</g>
<g>
</g>
<g>
</g>
<g>
</g>
<g>
</g>
<g>
</g>
<g>
</g>
<g>
</g>
<g>
</g>
<g>
</g>
<g>
</g>
<g>
</g>
<g>
</g>
<g>
</g>
</svg>
