<?xml version="1.0" encoding="iso-8859-1"?>
<!-- Generator: Adobe Illustrator 18.0.0, SVG Export Plug-In . SVG Version: 6.00 Build 0)  -->
<!DOCTYPE svg PUBLIC "-//W3C//DTD SVG 1.1//EN" "http://www.w3.org/Graphics/SVG/1.1/DTD/svg11.dtd">
<svg version="1.1" id="Capa_1" xmlns="http://www.w3.org/2000/svg" xmlns:xlink="http://www.w3.org/1999/xlink" x="0px" y="0px"
	 viewBox="0 0 174 174" style="enable-background:new 0 0 174 174;" xml:space="preserve">
<g>
	<defs>
		<ellipse id="SVGID_1_" cx="87" cy="87" rx="86.956" ry="87"/>
	</defs>
	<clipPath id="SVGID_2_">
		<use xlink:href="#SVGID_1_"  style="overflow:visible;"/>
	</clipPath>
	<ellipse style="clip-path:url(#SVGID_2_);fill:#FA9B4E;" cx="87" cy="87" rx="86.956" ry="87"/>
	<g style="clip-path:url(#SVGID_2_);">
		
			<ellipse transform="matrix(-0.3126 -0.9499 0.9499 -0.3126 2.1756 147.3794)" style="fill-rule:evenodd;clip-rule:evenodd;fill:#F5BE92;" cx="54.413" cy="72.903" rx="7.934" ry="4.588"/>
		
			<ellipse transform="matrix(0.3129 -0.9498 0.9498 0.3129 13.0851 163.8932)" style="fill-rule:evenodd;clip-rule:evenodd;fill:#F5BE92;" cx="119.815" cy="72.903" rx="7.934" ry="4.588"/>
		<path style="fill-rule:evenodd;clip-rule:evenodd;fill:#92653D;" d="M110.01,32.489c6.732,1.074,10.457,5.689,12.051,11.954
			c4.15,16.307-4.537,51.673-34.609,52.094c-15.506,0.217-26.676-3.726-30.746-16.277c-4.068-12.552-5.738-32.778,3.105-44.114
			C70.94,21.885,94.297,21.751,110.01,32.489z"/>
		
			<path style="fill-rule:evenodd;clip-rule:evenodd;fill:#4C9DD2;stroke:#4C9DD2;stroke-width:1.0844;stroke-linecap:round;stroke-linejoin:round;stroke-miterlimit:10;" d="
			M74.446,115.623c-28.145,12.338-36.586,18.915-39.924,21.869c-5.142,4.551-8.162,22.106-11.195,36.508h63.672h63.674
			c-3.033-14.402-5.703-31.958-10.846-36.508c-3.336-2.954-11.471-9.362-39.613-21.7L74.446,115.623z"/>
		<path style="fill-rule:evenodd;clip-rule:evenodd;fill:#F5BE92;" d="M73.51,91.029v20.886v12.479
			c7.514,8.885,19.813,9.204,27.328,0v-12.479V91.029C100.838,74.185,73.51,74.185,73.51,91.029z"/>
		<path style="fill-rule:evenodd;clip-rule:evenodd;fill:#F5BE92;" d="M87.174,35.022c-45.863,0-29.369,59.754-26.373,64.166
			c3.303,4.864,18.963,13.421,26.373,13.421c7.41,0,23.07-9.64,26.375-14.505C116.543,93.692,133.038,35.022,87.174,35.022z"/>
		<path style="fill-rule:evenodd;clip-rule:evenodd;fill:#92653D;" d="M64.842,49.42c8.059,4.9,14.293-2.41,21.568,0.726
			c7.277,3.134,28.148-5.364,32.443,27.761c6.887-24.023-4.74-44.141-30.998-45.284c-28.041-1.22-39.396,20.706-31.645,44.57
			C55.702,64.265,58.866,55.806,64.842,49.42z"/>
		
			<path style="fill-rule:evenodd;clip-rule:evenodd;fill:#FFFFFF;stroke:#FFFFFF;stroke-width:2;stroke-linecap:round;stroke-miterlimit:10;" d="
			M72.213,115.289l-9.691,5.245l14.053,19.479L87.237,129.9L72.213,115.289z"/>
		
			<path style="fill-rule:evenodd;clip-rule:evenodd;fill:#FFFFFF;stroke:#FFFFFF;stroke-width:2;stroke-linecap:round;stroke-miterlimit:10;" d="
			M102.26,115.289l9.691,5.245l-14.053,19.479L87.237,129.9L102.26,115.289z"/>
		<g>
			<g>
				<path style="fill:#92653D;" d="M64.129,47.357c0.623,3.974,6.51,4.572,9.664,4.886c6.183,0.615,13.844-1.758,18.873-5.285
					c0.382-0.268,0.242-0.839-0.235-0.868c-5.357-0.335-10.217,3.413-15.596,3.864c-3.902,0.327-9.179-0.202-12.21-2.884
					C64.389,46.86,64.083,47.066,64.129,47.357L64.129,47.357z"/>
			</g>
		</g>
		<g>
			<g>
				<path style="fill:#FFFFFF;" d="M68.456,77.051c0,0,1.49,2.515,6.07,2.515c4.581,0,5.385-2.151,5.43-2.909
					c0,0-1.759-2.987-5.367-2.987S68.456,77.051,68.456,77.051z"/>
				<g>
					<g>
						<radialGradient id="SVGID_3_" cx="74.3316" cy="76.6186" r="2.615" gradientUnits="userSpaceOnUse">
							<stop  offset="0" style="stop-color:#624A2E"/>
							<stop  offset="0.036" style="stop-color:#6D5633"/>
							<stop  offset="0.1218" style="stop-color:#816B3D"/>
							<stop  offset="0.2231" style="stop-color:#907C45"/>
							<stop  offset="0.348" style="stop-color:#9B884A"/>
							<stop  offset="0.5227" style="stop-color:#A18F4D"/>
							<stop  offset="1" style="stop-color:#A3914E"/>
						</radialGradient>
						<circle style="fill:url(#SVGID_3_);" cx="74.331" cy="76.619" r="2.615"/>
						<path style="fill:#624A2E;" d="M74.331,74.267c1.298,0,2.353,1.055,2.353,2.352c0,1.297-1.056,2.352-2.353,2.352
							c-1.296,0-2.351-1.055-2.351-2.352C71.979,75.322,73.034,74.267,74.331,74.267 M74.331,73.741
							c-1.589,0-2.877,1.288-2.877,2.877c0,1.589,1.288,2.878,2.877,2.878c1.59,0,2.879-1.288,2.879-2.878
							C77.209,75.029,75.92,73.741,74.331,73.741L74.331,73.741z"/>
					</g>
					<circle cx="74.331" cy="76.619" r="1.203"/>
				</g>
			</g>
			<g>
				<path style="fill:#FFFFFF;" d="M105.753,77.051c0,0-1.489,2.516-6.07,2.516c-4.58,0-5.384-2.151-5.43-2.909
					c0,0,1.76-2.988,5.368-2.988C103.231,73.67,105.753,77.051,105.753,77.051z"/>
				<g>
					<g>
						
							<radialGradient id="SVGID_4_" cx="-471.4106" cy="76.6186" r="2.6152" gradientTransform="matrix(-1 0 0 1 -371.5322 0)" gradientUnits="userSpaceOnUse">
							<stop  offset="0" style="stop-color:#624A2E"/>
							<stop  offset="0.036" style="stop-color:#6D5633"/>
							<stop  offset="0.1218" style="stop-color:#816B3D"/>
							<stop  offset="0.2231" style="stop-color:#907C45"/>
							<stop  offset="0.348" style="stop-color:#9B884A"/>
							<stop  offset="0.5227" style="stop-color:#A18F4D"/>
							<stop  offset="1" style="stop-color:#A3914E"/>
						</radialGradient>
						<circle style="fill:url(#SVGID_4_);" cx="99.878" cy="76.619" r="2.615"/>
						<path style="fill:#624A2E;" d="M99.878,74.266c1.297,0,2.352,1.055,2.352,2.352s-1.055,2.352-2.352,2.352
							c-1.297,0-2.352-1.055-2.352-2.352S98.581,74.266,99.878,74.266 M99.878,73.741c-1.589,0-2.878,1.289-2.878,2.878
							c0,1.589,1.289,2.878,2.878,2.878c1.59,0,2.878-1.289,2.878-2.878C102.756,75.029,101.468,73.741,99.878,73.741L99.878,73.741
							z"/>
					</g>
					<circle cx="99.879" cy="76.619" r="1.203"/>
				</g>
			</g>
			<g>
				<g>
					<path style="fill:#E48F67;" d="M82.061,89.112c-0.716,0.435-0.869,1.168-0.129,1.701c1.237,0.892,2.997,0.974,4.461,0.973
						c1.536-0.001,3.361-0.137,4.694-0.978c0.683-0.43,1.163-1.815,0.206-2.236c-0.181-0.08-0.463,0.008-0.441,0.253
						c0.029,0.325,0.334,0.63,0.275,0.929c-0.079,0.396-0.675,0.617-0.995,0.74c-0.996,0.383-2.119,0.446-3.173,0.475
						c-0.935,0.025-5.768,0.093-4.764-1.724C82.241,89.162,82.146,89.06,82.061,89.112L82.061,89.112z"/>
				</g>
			</g>
			<g>
				<g>
					<path style="fill:#E48F67;" d="M78.556,100.982c4.967,3.682,12.688,2.652,17.484-0.776c0.145-0.104,0.023-0.305-0.138-0.236
						c-5.877,2.53-11.194,3.151-17.21,0.691C78.492,100.579,78.41,100.874,78.556,100.982L78.556,100.982z"/>
				</g>
			</g>
			<g>
				<g>
					<path style="fill:#92653D;" d="M63.317,66.493c5.654-0.83,11.083-1.646,16.338,1.308c0.507,0.285,0.946-0.472,0.454-0.776
						c-4.354-2.692-12.443-3.808-16.848-0.664C63.191,66.41,63.235,66.505,63.317,66.493L63.317,66.493z"/>
				</g>
			</g>
			<g>
				<g>
					<path style="fill:#92653D;" d="M110.738,66.361c-4.404-3.144-12.493-2.027-16.848,0.664c-0.493,0.304-0.053,1.061,0.454,0.776
						c5.255-2.953,10.684-2.138,16.338-1.308C110.764,66.505,110.808,66.41,110.738,66.361L110.738,66.361z"/>
				</g>
			</g>
		</g>
		<path style="fill-rule:evenodd;clip-rule:evenodd;fill:#0A6F90;" d="M99.787,87.908c0.243-0.007,0.498-0.021,0.758-0.043
			c7.077-0.593,8.821-3.772,9.615-7.79c0.877-4.412,0.932-5.946,2.072-6.353c0.834-0.3,1.038-1.286,1.014-2.436
			c-0.031-1.146-0.066-1.271-1.447-1.747c-1.092-0.383-7.136-0.93-11.669-0.645l-0.019,1.187c3.57-0.195,7.016,0.235,8.014,0.881
			c2.272,1.472,1.609,8.573-0.305,12.092c-1.33,2.441-4.848,3.685-8.018,3.737L99.787,87.908z M86.56,71.215
			c-1.563,0.038-7.955-1.807-12.502-2.198c-0.322-0.03-0.653-0.054-0.996-0.072l-0.018,1.19c3.695,0.169,7.523,1.006,8.832,2.978
			c2.152,3.238-1.713,11.154-5.209,12.916c-1.061,0.535-2.461,0.811-3.932,0.826l-0.021,1.121c6.121,0.009,8.383-4.403,9.138-5.876
			c1.423-2.77,1.128-6.592,4.632-6.6c3.498-0.008,3.04,3.743,4.291,6.512c0.676,1.492,2.66,6.077,9.012,5.896l0.016-1.116
			c-1.564,0.026-3.055-0.245-4.146-0.806c-3.388-1.748-6.775-9.644-4.423-12.891c1.415-1.958,5.215-2.816,8.877-3.014l0.019-1.187
			c-0.28,0.015-0.558,0.035-0.825,0.062C95.209,69.328,90.242,71.119,86.56,71.215z M73.062,68.944
			c-4.488-0.24-10.436,0.326-11.534,0.704c-1.411,0.487-1.456,0.614-1.556,1.761c-0.096,1.148,0.053,2.135,0.864,2.431
			c1.114,0.401,1.077,1.936,1.688,6.345c0.549,4.014,2.095,7.184,9.141,7.745c0.36,0.03,0.71,0.042,1.049,0.045l0.021-1.121
			c-3.238,0.028-6.839-1.199-8.052-3.701c-1.7-3.512-1.938-10.608,0.432-12.094c1.023-0.642,4.418-1.086,7.929-0.925L73.062,68.944z
			"/>
		<g>
			<path style="fill:#92653D;" d="M116.361,60.266c-1.308-0.209-2.351-0.964-3.258-1.897c-0.496-0.51-0.851-1.133-1.063-1.808
				c-0.227-0.716-0.034-1.18-0.583-1.788c-0.27-0.298-0.814-0.378-1.15-0.148c-0.005,0.003-0.009,0.008-0.014,0.011
				c0.025-0.227,0.059-0.46,0.102-0.705c0.157-0.896-0.784-1.456-1.488-0.867c-0.395,0.33-0.662,0.727-0.836,1.16
				c0.012-0.774-0.614-1.541-1.64-1.318c-0.821,0.178-2.125,0.097-3.207-0.298c0.023-0.13,0.025-0.268-0.022-0.416
				c-0.413-1.291-1.34-2.033-1.928-3.221c-0.542-1.096-2.367-0.841-2.619,0.342c-0.011,0.051-0.011,0.097-0.02,0.147
				c-0.199-0.393-0.414-0.784-0.681-1.157c-0.391-0.546-1.192-0.483-1.414,0.185c-0.164,0.495-0.19,1.014-0.122,1.536
				c-0.409,0.174-0.897,0.336-1.425,0.466c-0.068-0.05-0.138-0.101-0.226-0.137c-1.718-0.713-3.46-1.253-4.871-2.521
				c-0.477-0.429-1.161-0.419-1.612-0.087c-0.755-0.531-1.877-0.483-2.567,0.531c-2.531,3.714-4.356,0.302-6.304-0.656
				c-0.836-0.411-1.858,0.083-1.869,1.073c-0.002,0.19,0.031,0.36,0.05,0.54c-0.153-0.196-0.294-0.397-0.412-0.605
				c-0.552-0.968-1.755-0.979-2.538-0.327c-1.703,1.416-3.829,2.032-5.999,2.254c-0.303,0.031-0.573,0.028-0.841,0.022
				c0.342-0.295,0.563-0.757,0.38-1.199c-0.1-0.24-0.042-0.101-0.029,0.066c-0.037-0.47-0.311-0.98-0.821-1.079
				c-0.914-0.176-1.693-0.676-2.617-0.823c-0.644-0.103-1.157,0.604-0.657,1.129c0.08,0.085,0.153,0.166,0.228,0.25
				c-0.013,0.087-0.018,0.173-0.009,0.262C63.634,48.674,63,48.079,62.25,47.48c-0.361-0.288-0.973-0.236-1.097,0.29
				c-1.704,7.241,9.145,6.011,14.111,3.773c3.505,4.329,11.134,5.185,13.321-0.307c1.345,1.826,4.233,2.062,6.755,1.466
				c0.654-0.111,1.274-0.303,1.847-0.567c0.592,1.01,1.428,1.901,2.235,2.47c2.317,1.633,5.086,1.845,7.719,0.877
				c0.345-0.127,0.582-0.337,0.732-0.583c-0.263,1.525,0.428,3.321,1.324,4.462c1.593,2.031,4.194,3.547,6.838,3.305
				C117.307,62.55,117.818,60.498,116.361,60.266z"/>
			<path style="fill:#92653D;" d="M61.4,38.864c0.009-0.061,0.015-0.126,0.022-0.19c0.396-0.142,0.625-0.423,0.689-0.771
				c0.731,0.159,1.535-0.223,1.475-1.209c-0.125-2.026,0.16-3.386,2.281-3.894c1.647-0.393,3.499-0.131,5.168-0.038
				c1.164,0.065,1.726-1.477,0.933-2.251c-0.612-0.598-1.36-1.014-2.173-1.299c0.36-0.307,0.755-0.553,1.142-0.692
				c0.256-0.092,0.522-0.141,0.792-0.167c-0.099,0.542-0.106,1.133-0.02,1.75c0.096,0.678,1.183,0.5,1.174-0.159
				c-0.008-0.583,0.138-1.078,0.403-1.457c0.591,0.172,1.122,0.429,1.767,0.179c0.436-0.169,0.696-0.504,0.718-0.933
				c0.642,0.138,1.229,0.423,1.777,0.786c0.632,0.419,0.981,1.099,1.745,1.303c0.602,0.161,1.112-0.289,1.152-0.877
				c0.066-0.987-0.61-1.749-1.541-2.295c0.803-1.268,2.505-1.558,3.986-1.115c0.013,0.468,0.263,0.917,0.83,1.051
				c0.613,0.146,1.184,0.284,1.815,0.339c0.119,0.01,0.227-0.005,0.331-0.028c-0.012,0.716,0.171,1.467,0.38,2.197
				c0.173,0.6,1.112,0.491,1.098-0.148c-0.065-2.799,1.99-3.364,4.304-2.8c1.14,0.277,2.216,0.867,3.107,1.622
				c0.77,0.652,1.253,1.586,2.13,2.113c0.433,0.261,1.041,0.02,1.165-0.474c0.85-3.371-4.629-5.584-7.14-5.858
				c-1.449-0.158-2.893,0.246-4.013,1.166c-0.132,0.108-0.232,0.224-0.336,0.339c-0.045-0.079-0.091-0.159-0.156-0.227
				c-2.422-2.513-8.359-2.524-9.271,1.097c-0.806-0.223-1.596-0.325-2.161-0.304c-0.41,0.016-0.767,0.094-1.098,0.198
				c-1.327-0.293-3.006-0.017-3.919,0.378c-0.948,0.41-1.822,1.063-2.395,1.937c-0.14,0.214-0.238,0.423-0.316,0.63
				c-1.564-0.056-3.159,0.223-4.473,0.708c-3.086,1.141-3.353,3.915-3.034,6.682c-3.123,0.695-5.952,5.462-4.669,7.875
				c0.138,0.927,0.528,1.776,1.226,2.401c-1.386,0.278-2.378,1.104-3.008,2.227c-1.997,1.963-1.929,6.024,0.053,8.177
				c0.15,0.212,0.314,0.404,0.495,0.563c0.151,0.133,0.342,0.174,0.522,0.157c1.162,0.306,2.46-0.824,1.699-2.101
				c-0.687-1.155-0.978-2.538-0.779-3.875c0.067-0.45,0.189-0.812,0.356-1.118c0.121-0.051,0.252-0.091,0.402-0.106
				c0.768-0.056,1.212-0.589,1.326-1.176c0.171-0.055,0.351-0.105,0.54-0.152c1.273-0.314,1.222-1.882,0.327-2.471
				c0.446-0.504,0.579-1.356,0.068-1.964c-1.414-1.682,0.121-4.57,1.959-5.522C60.531,39.458,61.322,39.403,61.4,38.864z"/>
		</g>
	</g>
</g>
<g>
</g>
<g>
</g>
<g>
</g>
<g>
</g>
<g>
</g>
<g>
</g>
<g>
</g>
<g>
</g>
<g>
</g>
<g>
</g>
<g>
</g>
<g>
</g>
<g>
</g>
<g>
</g>
<g>
</g>
</svg>
