<?xml version="1.0" encoding="iso-8859-1"?>
<!-- Generator: Adobe Illustrator 19.0.0, SVG Export Plug-In . SVG Version: 6.00 Build 0)  -->
<svg version="1.1" id="Layer_1" xmlns="http://www.w3.org/2000/svg" xmlns:xlink="http://www.w3.org/1999/xlink" x="0px" y="0px"
	 viewBox="0 0 473.931 473.931" style="enable-background:new 0 0 473.931 473.931;" xml:space="preserve">
<circle style="fill:#D7DABA;" cx="236.966" cy="236.966" r="236.966"/>
<path style="fill:#327477;" d="M354.154,359.291c0,3.618-2.93,6.541-6.537,6.541H127.908c-3.607,0-6.537-2.922-6.537-6.541V101.937
	c0-3.611,2.93-6.541,6.537-6.541h219.709c3.607,0,6.537,2.93,6.537,6.541V359.291z"/>
<path style="fill:#3B7F89;" d="M354.154,376.967c0,3.611-2.93,6.537-6.537,6.537H140.282V140.555h207.331
	c3.607,0,6.537,2.93,6.537,6.541v229.871H354.154z"/>
<rect x="137.633" y="137.158" style="fill:#4699A1;" width="3.977" height="246.35"/>
<path style="fill:#2A646E;" d="M138.292,95.396h-10.383c-3.607,0-6.537,2.93-6.537,6.541v275.031c0,3.611,2.93,6.537,6.537,6.537
	h10.383V95.396z"/>
<path style="fill:#E9E9EA;" d="M342.371,140.473H143.706c-6.773,0-12.262-5.497-12.262-12.269v-8.056
	c0-6.773,5.489-12.262,12.262-12.262h186.403c6.773,0,12.262,5.493,12.262,12.262L342.371,140.473z"/>
<g>
	<path style="fill:#2A646E;" d="M284.46,251.574h-73.503c-8.677,0-15.734-7.061-15.734-15.734v-38.147
		c0-8.67,7.057-15.73,15.734-15.73h73.503c8.673,0,15.734,7.061,15.734,15.73v38.143C300.19,244.513,293.133,251.574,284.46,251.574
		z"/>
	<path style="fill:#2A646E;" d="M309.683,290.84c0,2.821-2.196,5.111-4.909,5.111H188.443c-2.713,0-4.913-2.29-4.913-5.111l0,0
		c0-2.829,2.2-5.115,4.913-5.115h116.331C307.49,285.725,309.683,288.011,309.683,290.84L309.683,290.84z"/>
	<path style="fill:#2A646E;" d="M309.683,309.81c0,2.821-2.196,5.111-4.909,5.111H188.443c-2.713,0-4.913-2.29-4.913-5.111l0,0
		c0-2.821,2.2-5.111,4.913-5.111h116.331C307.49,304.699,309.683,306.989,309.683,309.81L309.683,309.81z"/>
	<path style="fill:#2A646E;" d="M289.017,338.031c0,1.893-1.482,3.435-3.304,3.435h-78.21c-1.826,0-3.304-1.542-3.304-3.435l0,0
		c0-1.897,1.482-3.439,3.304-3.439h78.21C287.539,334.592,289.017,336.134,289.017,338.031L289.017,338.031z"/>
</g>
<g>
</g>
<g>
</g>
<g>
</g>
<g>
</g>
<g>
</g>
<g>
</g>
<g>
</g>
<g>
</g>
<g>
</g>
<g>
</g>
<g>
</g>
<g>
</g>
<g>
</g>
<g>
</g>
<g>
</g>
</svg>
