<?xml version="1.0" encoding="utf-8"?>
<!-- Generator: Adobe Illustrator 19.1.0, SVG Export Plug-In . SVG Version: 6.00 Build 0)  -->
<svg version="1.1" id="Layer_1" xmlns="http://www.w3.org/2000/svg" xmlns:xlink="http://www.w3.org/1999/xlink" x="0px" y="0px"
	 width="23.5px" height="22.6px" viewBox="0 0 23.5 22.6" enable-background="new 0 0 23.5 22.6" xml:space="preserve">
<path d="M6.7,22.6v-1.2l0,0l0,0v0c0,0,0,0,0,0C4.9,21.2,3.8,21,4.6,19c0.1-0.2,0.6-1.5,1.3-3.3h8.2l1.2,3c0.2,0.5,0.3,0.9,0.3,1.2
	c0,1-0.9,1.4-2.6,1.4v1.2h10.5v-1.2c-0.9-0.2-1.6-0.4-1.9-1.2L13.5,0L7.7,0l1,2.5L1.9,20.2c-0.3,0.9-1,1-1.9,1.2l0,1.2H6.7z
	 M9.9,5.2l3.3,8.3H6.7C7.9,10.3,9.4,6.6,9.9,5.2z"/>
</svg>
